<svg xmlns="http://www.w3.org/2000/svg" width="256" height="256" viewBox="0 0 256 256">
  <rect width="256" height="256" rx="56" fill="#0f1c18" />
  <path
    d="M56 138c-10-32 8-70 46-86 33-14 78-7 97 20 18 25 15 63-2 86-19 25-55 44-89 44-24 0-46-10-52-24z"
    fill="#2ed573"
  />
  <path
    d="M78 118c8-20 28-36 51-40 21-4 44 3 57 18 12 15 13 37 2 55-10 17-32 30-56 33-23 3-44-6-54-20-7-10-8-29 0-46z"
    fill="#20bf6b"
  />
  <path
    d="M124 96c16-3 33 2 42 14 8 11 8 26 1 39-7 13-23 23-40 25-17 2-31-5-38-15-6-9-6-25 0-37 7-13 20-23 35-26z"
    fill="#15a65a"
  />
</svg>
